<?xml version="1.0" encoding="UTF-8"?>
<!DOCTYPE svg PUBLIC "-//W3C//DTD SVG 1.1//EN" "http://www.w3.org/Graphics/SVG/1.1/DTD/svg11.dtd">
<!-- Creator: CorelDRAW -->
<svg xmlns="http://www.w3.org/2000/svg" xml:space="preserve" width="5.4385mm" height="5.4385mm" version="1.1" style="shape-rendering:geometricPrecision; text-rendering:geometricPrecision; image-rendering:optimizeQuality; fill-rule:evenodd; clip-rule:evenodd"
viewBox="0 0 3.19 3.19"
 xmlns:xlink="http://www.w3.org/1999/xlink"
 xmlns:xodm="http://www.corel.com/coreldraw/odm/2003">
 <defs>
  <style type="text/css">
   <![CDATA[
    .fil0 {fill:#315696}
    .fil1 {fill:white}
   ]]>
  </style>
 </defs>
 <g id="Capa_x0020_1">
  <metadata id="CorelCorpID_0Corel-Layer"/>
  <circle class="fil0" cx="1.59" cy="1.59" r="1.59"/>
  <g id="_105553674062784">
   <path class="fil1" d="M0.95 1.29c0,-0.02 0.11,-0.09 0.13,-0.1l0.4 -0.29c0.06,-0.04 0.12,-0.09 0.18,-0.13 0.07,0.05 0.15,0.11 0.22,0.16 0.02,0.01 0.03,0.02 0.04,0.03l0.27 0.19c0.02,0.01 0.03,0.02 0.04,0.03 0.02,0.01 0.03,0.02 0.05,0.03 0.11,0.08 0.08,0.05 0.08,0.12l0 0.05c0,0.02 -0,0.02 -0,0.03l0 0.05c0,0.02 -0,0.02 -0,0.03l0 0.05c0,0.02 -0,0.02 -0,0.03l0 0.05c0,0.02 -0,0.02 -0,0.03l0 0.05c0,0.02 -0,0.02 -0,0.03l0 0.05c0,0.02 -0,0.02 -0,0.03l0 0.05c0,0.02 -0,0.02 -0,0.03l0 0.05c0,0.02 -0,0.02 -0,0.03l0 0.05c0,0.02 -0,0.02 -0,0.03l0 0.05c0,0.02 -0,0.02 -0,0.03l0 0.05c0,0.02 -0,0.02 -0,0.03l0 0.06 -1.42 0c-0.01,-0.07 -0,-0.02 -0,-0.08l-0 -0.05c0,-0.02 0,-0.02 0,-0.03l-0 -0.05c0,-0.02 0,-0.02 0,-0.03l-0 -0.05c0,-0.02 0,-0.02 0,-0.03l-0 -0.05c0,-0.02 0,-0.02 0,-0.03l-0 -0.05c0,-0.02 0,-0.02 0,-0.03l-0 -0.05c0,-0.02 0,-0.02 0,-0.03l-0 -0.05c0,-0.02 0,-0.02 0,-0.03l-0 -0.05c0,-0.02 0,-0.02 0,-0.03l-0 -0.05c0,-0.02 0,-0.02 0,-0.03l-0 -0.05c0,-0.02 0,-0.02 0,-0.03l-0 -0.05c0,-0.02 0,-0.02 0,-0.03 0,-0.01 -0,-0.02 -0,-0.04zm-0.29 -0.02c0,0.07 0.08,0.15 0.17,0.1l0 1.04 1.67 0 0 -1.04c0.13,0.07 0.24,-0.11 0.12,-0.2 -0.01,-0.01 -0.02,-0.01 -0.03,-0.02 -0.1,-0.08 -0.21,-0.15 -0.31,-0.23 -0.13,-0.09 -0.28,-0.2 -0.41,-0.29 -0.01,-0.01 -0.02,-0.02 -0.03,-0.02 -0.1,-0.07 -0.08,-0.08 -0.19,-0.08 -0.04,0 -0.16,0.1 -0.2,0.12l-0.13 0.09c-0.09,0.06 -0.22,0.16 -0.31,0.23l-0.25 0.18c-0.04,0.03 -0.09,0.06 -0.09,0.12z"/>
   <path class="fil1" d="M1.52 1.52l-0.27 0 0 0.27c0,0.01 0,0.01 0.01,0.01l0.26 0 0 0.26c0,0.01 0,0.01 0.01,0.01l0.26 0c0.01,0 0.01,-0 0.01,-0.01l0 -0.26 0.26 0c0.01,0 0.01,-0 0.01,-0.01l0 -0.27 -0.27 0 0 -0.27 -0.28 0 0 0.27z"/>
  </g>
 </g>
</svg>
