<?xml version="1.0" encoding="UTF-8"?>
<!DOCTYPE svg PUBLIC "-//W3C//DTD SVG 1.1//EN" "http://www.w3.org/Graphics/SVG/1.1/DTD/svg11.dtd">
<!-- Creator: CorelDRAW -->
<svg xmlns="http://www.w3.org/2000/svg" xml:space="preserve" width="5.4385mm" height="5.4385mm" version="1.1" style="shape-rendering:geometricPrecision; text-rendering:geometricPrecision; image-rendering:optimizeQuality; fill-rule:evenodd; clip-rule:evenodd"
viewBox="0 0 2.97 2.97"
 xmlns:xlink="http://www.w3.org/1999/xlink"
 xmlns:xodm="http://www.corel.com/coreldraw/odm/2003">
 <defs>
  <style type="text/css">
   <![CDATA[
    .fil0 {fill:#315696}
    .fil1 {fill:white}
   ]]>
  </style>
 </defs>
 <g id="Capa_x0020_1">
  <metadata id="CorelCorpID_0Corel-Layer"/>
  <circle class="fil0" cx="1.49" cy="1.49" r="1.49"/>
  <g id="_105553672799936">
   <path class="fil1" d="M0.96 1.54l1.07 0c-0.01,0.01 -0.01,0.06 -0.01,0.07 -0.01,0.03 -0.01,0.05 -0.01,0.07 -0.01,0.04 -0.08,0.41 -0.08,0.44l-0.85 0c0,-0.03 -0.07,-0.39 -0.08,-0.44 -0.01,-0.03 -0.01,-0.05 -0.01,-0.07 -0,-0.02 -0.01,-0.06 -0.02,-0.07zm0.34 -0.51l0.4 0 0 0.03 -0.4 0 0 -0.03zm0.17 -0.38l0.05 0 0 0.23 -0.05 0 0 -0.23zm-0.13 0l0.1 0 0 0.23c-0.06,0 -0.12,-0.01 -0.15,0.02 -0.03,0.03 -0.02,0.09 -0.02,0.16 -0.08,0 -0.23,0.11 -0.28,0.19 -0.05,0.08 -0.07,0.18 -0.06,0.28 0.01,0.04 0.01,0.06 0.02,0.1 0.02,0.12 0.05,0.26 0.07,0.39l0.06 0.35c0,0.02 0.01,0.03 0.01,0.05l0.82 0c0,-0.04 0.13,-0.72 0.14,-0.79 0.04,-0.21 0.02,-0.36 -0.16,-0.5 -0.03,-0.02 -0.12,-0.07 -0.16,-0.07 0,-0.06 0.01,-0.12 -0.02,-0.15 -0.04,-0.03 -0.08,-0.02 -0.15,-0.02l0 -0.23 0.1 0 0 -0.04 0.15 0c0.03,0 0.05,0.02 0.07,0.03 0.01,0.01 0.03,0.04 0.03,0.07l0.09 0c-0.01,-0.11 -0.09,-0.19 -0.18,-0.19l-0.16 0 0 -0.05 -0.32 0 0 0.18z"/>
   <path class="fil1" d="M1.43 1.76l-0.17 0 0 0.12c0,0.01 0,0.01 0.01,0.01l0.16 0 0 0.17 0.13 0 0 -0.17 0.16 0c0.01,0 0.01,-0 0.01,-0.01l0 -0.12 -0.17 0 0 -0.17 -0.13 0 0 0.17z"/>
  </g>
 </g>
</svg>
