<?xml version="1.0" encoding="UTF-8"?>
<!DOCTYPE svg PUBLIC "-//W3C//DTD SVG 1.1//EN" "http://www.w3.org/Graphics/SVG/1.1/DTD/svg11.dtd">
<!-- Creator: CorelDRAW -->
<svg xmlns="http://www.w3.org/2000/svg" xml:space="preserve" width="5.4385mm" height="5.4385mm" version="1.1" style="shape-rendering:geometricPrecision; text-rendering:geometricPrecision; image-rendering:optimizeQuality; fill-rule:evenodd; clip-rule:evenodd"
viewBox="0 0 3.07 3.07"
 xmlns:xlink="http://www.w3.org/1999/xlink"
 xmlns:xodm="http://www.corel.com/coreldraw/odm/2003">
 <defs>
  <style type="text/css">
   <![CDATA[
    .fil0 {fill:#315696}
    .fil1 {fill:white}
   ]]>
  </style>
 </defs>
 <g id="Capa_x0020_1">
  <metadata id="CorelCorpID_0Corel-Layer"/>
  <circle class="fil0" cx="1.54" cy="1.54" r="1.54"/>
  <path class="fil1" d="M1.05 1.68l0.32 0 0 -0.32 0.33 0 0 0.32 0.32 0 0 0.33 -0.32 0 0 0.32 -0.33 0 0 -0.32 -0.32 0 0 -0.33zm-0.19 0.22c0,0.07 0.01,0.15 0.03,0.21 0.02,0.06 0.05,0.11 0.08,0.17 0.01,0.02 0.02,0.03 0.04,0.05 0.01,0.01 0.01,0.01 0.02,0.02 0.01,0.01 0.01,0.01 0.02,0.02 0.11,0.11 0.29,0.21 0.46,0.21 0.13,0 0.21,-0.01 0.32,-0.07 0.07,-0.04 0.14,-0.08 0.19,-0.14l0.04 -0.04c0.07,-0.08 0.11,-0.17 0.14,-0.28 0.02,-0.08 0.03,-0.24 -0.01,-0.32l-0.28 -0.57c-0.01,-0.02 -0.01,-0.03 -0.02,-0.04 -0.01,-0.01 -0.01,-0.03 -0.02,-0.04l-0.05 -0.08c-0.04,-0.07 -0.27,-0.49 -0.28,-0.51l-0.1 0.17c-0.05,0.1 -0.13,0.23 -0.18,0.34l-0.09 0.17c-0.06,0.11 -0.12,0.23 -0.18,0.34 -0.07,0.15 -0.13,0.23 -0.13,0.39z"/>
 </g>
</svg>
