<?xml version="1.0" encoding="UTF-8"?>
<!DOCTYPE svg PUBLIC "-//W3C//DTD SVG 1.1//EN" "http://www.w3.org/Graphics/SVG/1.1/DTD/svg11.dtd">
<!-- Creator: CorelDRAW -->
<svg xmlns="http://www.w3.org/2000/svg" xml:space="preserve" width="5.4385mm" height="5.4385mm" version="1.1" style="shape-rendering:geometricPrecision; text-rendering:geometricPrecision; image-rendering:optimizeQuality; fill-rule:evenodd; clip-rule:evenodd"
viewBox="0 0 2.87 2.87"
 xmlns:xlink="http://www.w3.org/1999/xlink"
 xmlns:xodm="http://www.corel.com/coreldraw/odm/2003">
 <defs>
  <style type="text/css">
   <![CDATA[
    .fil0 {fill:#315696}
    .fil1 {fill:white}
   ]]>
  </style>
 </defs>
 <g id="Capa_x0020_1">
  <metadata id="CorelCorpID_0Corel-Layer"/>
  <circle class="fil0" cx="1.43" cy="1.43" r="1.43"/>
  <g id="_105553672931648">
   <path class="fil1" d="M1.48 2.16c-0.09,0 -0.14,0 -0.23,-0.03 -0.09,-0.03 -0.17,-0.07 -0.25,-0.13 -0.03,-0.02 -0.06,-0.05 -0.08,-0.08 -0.01,-0.01 -0.01,-0.01 -0.01,-0.01 0.01,-0.01 0.02,-0.02 0.04,-0.03 0.01,-0.01 0.02,-0.02 0.04,-0.03l1.08 -0.82c0.01,0.01 0.01,0.02 0.02,0.04 0.02,0.04 0.04,0.08 0.06,0.12 0.07,0.2 0.04,0.43 -0.06,0.6 -0.02,0.04 -0.04,0.07 -0.07,0.1l-0.04 0.05c-0.01,0.01 -0.01,0.01 -0.02,0.02 -0.02,0.02 -0.03,0.03 -0.07,0.06 -0.11,0.08 -0.25,0.13 -0.38,0.13zm-0.64 -0.32l-0.04 -0.08c-0.1,-0.19 -0.1,-0.44 -0.01,-0.63 0.04,-0.07 0.08,-0.14 0.14,-0.2 0.01,-0.01 0.01,-0.01 0.02,-0.02 0.01,-0.01 0.01,-0.01 0.02,-0.02 0.06,-0.05 0.09,-0.07 0.16,-0.1 0.15,-0.07 0.35,-0.09 0.51,-0.04 0.09,0.03 0.17,0.07 0.25,0.13l0.07 0.07c0.01,0.01 0.02,0.02 0.02,0.03 -0.06,0.04 -0.22,0.17 -0.29,0.22l-0.57 0.44c-0.06,0.04 -0.16,0.12 -0.21,0.16l-0.07 0.05zm-0.22 -0.4c0,0.11 0.03,0.24 0.07,0.34 0.01,0.01 0.01,0.02 0.02,0.03 0.01,0.01 0.01,0.02 0.02,0.03 0.01,0.02 0.03,0.04 0.04,0.06 0.08,0.11 0.21,0.23 0.33,0.28 0.11,0.05 0.2,0.07 0.34,0.07 0.3,0 0.58,-0.17 0.71,-0.41 0.02,-0.03 0.04,-0.07 0.05,-0.1 0,-0.01 0.01,-0.03 0.01,-0.04 0.11,-0.3 0.01,-0.64 -0.19,-0.84 -0.05,-0.05 -0.11,-0.1 -0.17,-0.13 -0.29,-0.16 -0.6,-0.15 -0.87,0.04 -0.22,0.14 -0.35,0.41 -0.35,0.67z"/>
   <path class="fil1" d="M1.44 1.32c0.01,-0 0.02,-0.01 0.03,-0.02l0.2 -0.15c0.04,-0.03 0.08,-0.06 0.11,-0.09 0.02,-0.01 0.1,-0.08 0.11,-0.09 -0.03,-0.06 -0.11,-0.07 -0.15,-0.03 -0.05,0.05 -0.02,0.1 -0.02,0.11l-0.1 0.06c-0.01,0.01 -0.01,0.01 -0.02,0 -0.03,-0.01 -0.07,-0.03 -0.1,-0.03 -0,-0.02 -0.01,-0.05 -0.01,-0.07 -0,-0.01 -0.01,-0.03 -0.01,-0.04 -0,-0.01 -0.01,-0.03 -0.01,-0.04 0.03,-0.01 0.05,-0.03 0.06,-0.06 0.01,-0.04 0.01,-0.07 -0.02,-0.1 -0.08,-0.08 -0.21,0.03 -0.14,0.12 0.01,0.02 0.03,0.03 0.05,0.04 0,0.02 -0.03,0.13 -0.03,0.15 -0.02,0 -0.05,0.01 -0.07,0.02 -0.04,0.02 -0.05,0.03 -0.06,0.02 -0.03,-0.01 -0.11,-0.06 -0.12,-0.06 0,-0.03 0.01,-0.04 -0,-0.07 -0.03,-0.06 -0.14,-0.06 -0.14,0.04 0,0.04 0.05,0.09 0.12,0.05 0.01,0.02 0.07,0.09 0.08,0.11 -0,0 -0.01,0.01 -0.02,0.01 -0.03,0 -0.06,-0.01 -0.08,-0.01 0,-0.09 -0.11,-0.07 -0.11,-0.01 0,0.06 0.07,0.07 0.1,0.03 0.01,0.01 0.05,0.04 0.06,0.04 -0,0.02 -0.01,0.03 -0.01,0.04 -0.02,0 -0.06,0.01 -0.08,0.01 -0.03,0 -0.06,0.01 -0.08,0.01 -0,-0.05 -0.09,-0.11 -0.16,-0.05 -0.09,0.09 0.03,0.21 0.12,0.14 0.01,-0.01 0.03,-0.03 0.03,-0.05 0.02,0 0.05,0.01 0.07,0.02l0.07 0.02c0,0.07 0.02,0.08 0.03,0.13 0.01,-0 0.06,-0.04 0.07,-0.05 0.03,-0.02 0.05,-0.04 0.07,-0.06l0.07 -0.05c0.01,-0.01 0.07,-0.05 0.07,-0.06 -0.01,0 -0.02,0.01 -0.03,0.01 -0.1,0.04 -0.18,-0.05 -0.08,-0.14 0.08,-0.07 0.22,-0.02 0.16,0.08 -0.01,0.01 -0.02,0.02 -0.02,0.03zm0 0c-0.01,0 -0.01,0 -0.02,0.01 0.01,-0 0.01,-0 0.02,-0.01z"/>
   <path class="fil1" d="M1.65 1.57c-0.07,0 -0.05,-0.14 0.04,-0.14 0.03,0 0.05,0.04 0.03,0.08 -0.01,0.02 -0.04,0.06 -0.07,0.06zm-0.19 -0.03c0.01,0.03 0.01,0.01 0.01,0.07 0,0.06 -0.07,0.1 -0.16,0.04l-0.09 0.07c-0.01,0.01 -0.01,0.03 -0.01,0.04 -0.02,0 -0.03,0 -0.04,0.01 -0.03,0.02 -0.01,0.07 0.02,0.07 0.02,0 0.04,-0.02 0.04,-0.04 0,-0.01 -0.01,-0.02 -0.01,-0.03l0.05 -0.05c0.02,0.01 0.04,0.02 0.07,0.02 0,0.03 0.03,0.14 0.03,0.17 -0.06,0 -0.12,0.11 -0.05,0.18 0.04,0.04 0.11,0.04 0.15,-0 0.05,-0.05 0.03,-0.15 -0.05,-0.17 0.01,-0.05 0.02,-0.1 0.04,-0.15 0.06,-0 0.11,-0.03 0.13,-0.04 0.03,0.02 0.06,0.05 0.09,0.07 -0.01,0.02 -0.01,0.01 -0.01,0.05 0,0.09 0.15,0.1 0.15,-0.01 0,-0.05 -0.06,-0.08 -0.1,-0.06l-0.05 -0.11c0.01,-0.01 0.03,-0.03 0.04,-0.04 0.03,0 0.06,0.02 0.08,0.02 0,0.03 0,0.05 0.03,0.06 0.02,0.01 0.04,0.01 0.06,-0.01 0.04,-0.04 0,-0.13 -0.08,-0.08l-0.06 -0.05c0.01,-0.02 0.01,-0.03 0.02,-0.05 0.01,0 0.03,0 0.04,0 0.02,0 0.02,-0 0.04,-0 0.01,-0 0.03,0 0.04,0 0.02,-0 0.02,-0 0.04,-0 0.01,0.01 0,0.02 0.01,0.03 0.05,0.09 0.18,0.07 0.18,-0.04 0,-0.03 -0.01,-0.05 -0.03,-0.06 -0.06,-0.06 -0.15,-0.02 -0.16,0.03l-0.16 -0.06c0,-0.04 -0.01,-0.07 -0.01,-0.09l0.07 -0.04c0.02,0.01 0.02,0.03 0.06,0.03 0.07,0 0.1,-0.09 0.04,-0.13 -0.04,0.03 -0.13,0.1 -0.18,0.13l-0.27 0.2c-0.01,0.01 -0.02,0.02 -0.03,0.02z"/>
  </g>
 </g>
</svg>
