<?xml version="1.0" encoding="UTF-8"?>
<!DOCTYPE svg PUBLIC "-//W3C//DTD SVG 1.1//EN" "http://www.w3.org/Graphics/SVG/1.1/DTD/svg11.dtd">
<!-- Creator: CorelDRAW -->
<svg xmlns="http://www.w3.org/2000/svg" xml:space="preserve" width="4.4777mm" height="4.4776mm" version="1.1" style="shape-rendering:geometricPrecision; text-rendering:geometricPrecision; image-rendering:optimizeQuality; fill-rule:evenodd; clip-rule:evenodd"
viewBox="0 0 1.96 1.96"
 xmlns:xlink="http://www.w3.org/1999/xlink"
 xmlns:xodm="http://www.corel.com/coreldraw/odm/2003">
 <defs>
  <style type="text/css">
   <![CDATA[
    .fil1 {fill:#B3B3B3}
    .fil0 {fill:#E6E6E6}
    .fil2 {fill:white}
   ]]>
  </style>
 </defs>
 <g id="Capa_x0020_1">
  <metadata id="CorelCorpID_0Corel-Layer"/>
  <circle class="fil0" cx="0.98" cy="0.98" r="0.98"/>
  <g id="_105553753646208">
   <g>
    <path class="fil1" d="M0.99 1.87l0 0c-0.48,0 -0.87,-0.39 -0.87,-0.87l0 0c0,-0.48 0.39,-0.87 0.87,-0.87l0 0c0.48,0 0.87,0.39 0.87,0.87l0 0c0,0.48 -0.39,0.87 -0.87,0.87z"/>
    <path id="f" class="fil2" d="M1.21 1.87l0 -0.68 0.23 0 0.03 -0.26 -0.26 0 0 -0.17c0,-0.08 0.02,-0.13 0.13,-0.13l0.14 0 0 -0.24c-0.02,-0 -0.11,-0.01 -0.2,-0.01 -0.2,0 -0.34,0.12 -0.34,0.35l0 0.19 -0.23 0 0 0.26 0.23 0 0 0.68 0.27 0z"/>
   </g>
  </g>
 </g>
</svg>
