<?xml version="1.0" encoding="UTF-8"?>
<!DOCTYPE svg PUBLIC "-//W3C//DTD SVG 1.1//EN" "http://www.w3.org/Graphics/SVG/1.1/DTD/svg11.dtd">
<!-- Creator: CorelDRAW -->
<svg xmlns="http://www.w3.org/2000/svg" xml:space="preserve" width="5.146mm" height="5.146mm" version="1.1" style="shape-rendering:geometricPrecision; text-rendering:geometricPrecision; image-rendering:optimizeQuality; fill-rule:evenodd; clip-rule:evenodd"
viewBox="0 0 2.91 2.91"
 xmlns:xlink="http://www.w3.org/1999/xlink"
 xmlns:xodm="http://www.corel.com/coreldraw/odm/2003">
 <defs>
  <style type="text/css">
   <![CDATA[
    .fil1 {fill:#B3B3B3}
    .fil0 {fill:#E6E6E6}
    .fil2 {fill:#FEFEFE}
   ]]>
  </style>
 </defs>
 <g id="Capa_x0020_1">
  <metadata id="CorelCorpID_0Corel-Layer"/>
  <circle class="fil0" cx="1.46" cy="1.46" r="1.46"/>
  <circle class="fil1" cx="1.46" cy="1.47" r="1.33"/>
  <g id="_105553745894176">
   <path class="fil1" d="M1.16 1.23c-0,0.2 0.27,0.51 0.53,0.53 0.03,-0.09 0.05,-0.11 0.11,-0.15 0.02,-0.02 0.03,-0.03 0.06,-0.02 0.15,0.05 0.35,0.28 0.34,0.36 -0,0.03 -0.05,0.09 -0.07,0.11 -0.03,0.04 -0.05,0.06 -0.09,0.09 -0.1,0.07 -0.13,0.07 -0.26,0.02 -0.17,-0.06 -0.32,-0.15 -0.45,-0.25 -0.13,-0.11 -0.16,-0.15 -0.27,-0.26l-0.08 -0.1c-0.06,-0.08 -0.09,-0.13 -0.14,-0.21 -0.04,-0.06 -0.15,-0.31 -0.12,-0.39 0.04,-0.12 0.21,-0.27 0.27,-0.25 0.14,0.05 0.31,0.21 0.36,0.35 0.01,0.03 -0.04,0.09 -0.06,0.1 -0.02,0.02 -0.09,0.05 -0.12,0.06zm0.24 -1.09l0.13 0c0.17,0.01 0.33,0.05 0.48,0.12 0.28,0.14 0.51,0.35 0.64,0.64 0.09,0.19 0.12,0.35 0.12,0.59 0,0.34 -0.16,0.67 -0.38,0.9 -0.1,0.1 -0.24,0.2 -0.38,0.26 -0.16,0.07 -0.34,0.11 -0.52,0.12l-0.08 0c-0.18,-0.01 -0.35,-0.05 -0.51,-0.12 -0.28,-0.14 -0.5,-0.35 -0.64,-0.64 -0.09,-0.19 -0.12,-0.35 -0.12,-0.59 0,-0.34 0.16,-0.67 0.38,-0.9 0.23,-0.23 0.55,-0.37 0.87,-0.38z"/>
   <path class="fil2" d="M1.16 1.23c0.03,-0.01 0.1,-0.04 0.12,-0.06 0.02,-0.02 0.07,-0.07 0.06,-0.1 -0.04,-0.14 -0.22,-0.31 -0.36,-0.35 -0.06,-0.02 -0.22,0.12 -0.27,0.25 -0.03,0.08 0.09,0.33 0.12,0.39 0.05,0.08 0.08,0.13 0.14,0.21l0.08 0.1c0.11,0.11 0.14,0.15 0.27,0.26 0.13,0.11 0.28,0.2 0.45,0.25 0.13,0.04 0.15,0.04 0.26,-0.02 0.04,-0.03 0.07,-0.05 0.09,-0.09 0.01,-0.02 0.06,-0.08 0.07,-0.11 0.01,-0.09 -0.19,-0.32 -0.34,-0.36 -0.03,-0.01 -0.04,0 -0.06,0.02 -0.06,0.04 -0.08,0.06 -0.11,0.15 -0.26,-0.02 -0.53,-0.33 -0.53,-0.53z"/>
  </g>
 </g>
</svg>
