<?xml version="1.0" encoding="UTF-8"?>
<!DOCTYPE svg PUBLIC "-//W3C//DTD SVG 1.1//EN" "http://www.w3.org/Graphics/SVG/1.1/DTD/svg11.dtd">
<!-- Creator: CorelDRAW -->
<svg xmlns="http://www.w3.org/2000/svg" xml:space="preserve" width="4.4776mm" height="4.4776mm" version="1.1" style="shape-rendering:geometricPrecision; text-rendering:geometricPrecision; image-rendering:optimizeQuality; fill-rule:evenodd; clip-rule:evenodd"
viewBox="0 0 1.94 1.94"
 xmlns:xlink="http://www.w3.org/1999/xlink"
 xmlns:xodm="http://www.corel.com/coreldraw/odm/2003">
 <defs>
  <style type="text/css">
   <![CDATA[
    .fil2 {fill:#B3B3B3}
    .fil0 {fill:#E6E6E6}
    .fil1 {fill:#FFFEFE}
   ]]>
  </style>
 </defs>
 <g id="Capa_x0020_1">
  <metadata id="CorelCorpID_0Corel-Layer"/>
  <circle class="fil0" cx="0.97" cy="0.97" r="0.97"/>
  <g id="_105553753396544">
   <path class="fil1" d="M0.49 1c0,-0.05 -0.01,-0.3 0.01,-0.32 -0,-0.06 0.05,-0.14 0.12,-0.16 0.02,-0.01 0.06,-0.02 0.08,-0.02 0.03,-0.01 0.26,-0.01 0.31,-0.01 0.08,-0 0.22,-0.01 0.3,0.02 0.08,0.03 0.12,0.1 0.13,0.19 0.01,0.07 0.01,0.14 0,0.21 -0,0.04 0.01,0.24 -0,0.26 0.01,0.04 -0.01,0.12 -0.03,0.16 -0.01,0.01 -0.02,0.03 -0.03,0.04 -0.06,0.06 -0.1,0.06 -0.2,0.07l-0.24 0c-0.07,0 -0.15,0 -0.22,-0 -0.14,-0.01 -0.21,-0.08 -0.22,-0.22 -0.01,-0.07 -0.01,-0.15 -0,-0.22zm0.11 -0.59c-0.03,0.01 -0.05,0.02 -0.08,0.04 -0.03,0.02 -0.04,0.03 -0.06,0.06 -0.03,0.04 -0.06,0.1 -0.07,0.16 -0.01,0.07 -0.01,0.13 -0.01,0.2 -0,0.07 -0,0.14 0,0.21 0,0.08 -0,0.16 0.02,0.23 0.03,0.14 0.13,0.22 0.27,0.24 0.08,0.01 0.16,0.01 0.24,0.01 0.09,0 0.2,0 0.28,-0 0.04,-0 0.09,-0.01 0.12,-0.02 0.04,-0.01 0.07,-0.03 0.1,-0.05 0.01,-0.01 0.02,-0.02 0.03,-0.03 0.01,-0.01 0.02,-0.02 0.03,-0.03 0.02,-0.02 0.03,-0.04 0.04,-0.07 0.03,-0.07 0.03,-0.16 0.03,-0.25 -0,-0.16 0.02,-0.43 -0.05,-0.56 -0.04,-0.06 -0.09,-0.11 -0.17,-0.14 -0.09,-0.03 -0.19,-0.02 -0.29,-0.02 -0.08,-0 -0.16,-0 -0.24,0 -0.08,0 -0.13,0 -0.21,0.02z"/>
   <path class="fil2" d="M0.79 0.14c0.01,0.02 0.05,0.05 0.06,0.07 0.03,0.03 0.18,0.18 0.19,0.19 0.1,0 0.2,-0.01 0.29,0.02 0.08,0.03 0.13,0.08 0.17,0.14 0.07,0.13 0.05,0.4 0.05,0.56 0.01,0 0.01,0 0.02,0.01l0.18 0.19c0.01,-0.01 0.03,-0.08 0.04,-0.1 0.06,-0.22 0.03,-0.48 -0.09,-0.67l-0.04 -0.07c-0.01,-0.01 -0.02,-0.03 -0.03,-0.04 -0.12,-0.15 -0.34,-0.29 -0.61,-0.31l-0.09 0c-0.04,0 -0.09,0.01 -0.13,0.02z"/>
   <path class="fil2" d="M1.15 1.81c-0,-0.02 -0.01,-0.02 -0.03,-0.03 -0.03,-0.03 -0.21,-0.2 -0.21,-0.22 -0.08,-0 -0.16,0 -0.24,-0.01 -0.13,-0.02 -0.23,-0.1 -0.27,-0.24 -0.02,-0.07 -0.01,-0.16 -0.02,-0.23 -0.02,-0.01 -0.05,-0.05 -0.07,-0.06 -0.02,-0.02 -0.04,-0.04 -0.06,-0.06 -0.02,-0.02 -0.11,-0.12 -0.13,-0.13 -0.01,0.04 -0.01,0.08 -0.01,0.12l0 0.06c0,0.1 0.02,0.2 0.05,0.27 0.05,0.13 0.11,0.22 0.21,0.32 0.08,0.08 0.21,0.16 0.32,0.2 0.08,0.03 0.13,0.03 0.22,0.04 0,0 0,0 0.01,0l0.08 0c0.06,-0 0.13,-0.01 0.15,-0.02z"/>
   <path class="fil1" d="M0.93 0.78c0.12,-0.02 0.21,0.06 0.22,0.16 0.02,0.12 -0.06,0.21 -0.16,0.23 -0.12,0.02 -0.21,-0.06 -0.23,-0.16 -0.02,-0.11 0.05,-0.21 0.16,-0.23zm-0.04 -0.1c-0.06,0.01 -0.09,0.04 -0.13,0.07 -0.02,0.02 -0.06,0.07 -0.08,0.12 -0.04,0.12 -0.01,0.21 0.05,0.29 0.05,0.07 0.14,0.12 0.27,0.11 0.13,-0.02 0.24,-0.13 0.26,-0.26 0.01,-0.06 0,-0.11 -0.02,-0.16 -0.02,-0.04 -0.05,-0.09 -0.07,-0.11 -0.07,-0.06 -0.15,-0.1 -0.28,-0.07z"/>
   <path class="fil2" d="M0.7 0.5l0.01 0c0.01,0.02 0.12,0.13 0.15,0.16 0.01,0.01 0.02,0.01 0.02,0.02 0.12,-0.03 0.21,0.01 0.28,0.07 0.02,0.02 0.06,0.07 0.07,0.11 0.02,0.05 0.03,0.1 0.02,0.16 0.01,-0 0,-0 0.02,0.01l0.11 0.11c0.01,0.01 0.04,0.03 0.04,0.05 0.01,-0.02 0,-0.22 0,-0.26l-0.2 -0.2c-0.01,0 -0,0 -0,-0 -0.02,-0.01 -0.02,-0.01 -0.03,-0.03 -0,0 -0,0 -0,-0l-0.2 -0.2c-0.06,0 -0.28,-0.01 -0.31,0.01z"/>
   <path class="fil2" d="M0.49 1l0.45 0.45 0.24 -0c-0.01,-0.01 -0.01,-0.01 -0.02,-0.03 -0.03,-0.03 -0.15,-0.14 -0.15,-0.15 -0.13,0.01 -0.22,-0.04 -0.27,-0.11 -0.06,-0.08 -0.09,-0.17 -0.05,-0.29 -0.02,-0.01 -0.08,-0.07 -0.1,-0.09 -0.02,-0.02 -0.08,-0.08 -0.09,-0.09 -0.02,0.02 -0.01,0.27 -0.01,0.32z"/>
   <path class="fil2" d="M0.93 0.78c-0.11,0.02 -0.18,0.12 -0.16,0.23 0.02,0.09 0.11,0.18 0.23,0.16 0.09,-0.02 0.18,-0.11 0.16,-0.23 -0.02,-0.09 -0.11,-0.18 -0.22,-0.16z"/>
   <path class="fil2" d="M0.91 1.56c0.01,0.01 0.18,0.19 0.21,0.22 0.02,0.02 0.02,0.02 0.03,0.03 0.06,-0 0.23,-0.08 0.3,-0.13l0.07 -0.05c0.01,-0.01 0.01,-0 0.01,-0.01l-0.12 -0.11 0.01 -0.01c0,-0 0,-0 0,-0 -0.03,0.02 -0.06,0.03 -0.1,0.05 -0.04,0.01 -0.08,0.02 -0.12,0.02 -0.09,0 -0.2,0.01 -0.28,0z"/>
   <path class="fil2" d="M1.26 1.01c-0.02,0.13 -0.13,0.24 -0.26,0.26 0,0.01 0.12,0.13 0.15,0.15 0.01,0.01 0.01,0.01 0.02,0.03 0.1,-0.01 0.14,-0.01 0.2,-0.07 0.01,-0.01 0.02,-0.02 0.03,-0.04 0.02,-0.04 0.04,-0.12 0.03,-0.16 -0.01,-0.02 -0.03,-0.03 -0.04,-0.05l-0.11 -0.11c-0.02,-0.02 -0.01,-0.02 -0.02,-0.01z"/>
   <path class="fil2" d="M0.47 0.28c0.01,0.02 0.05,0.05 0.07,0.07 0.01,0.01 0.06,0.06 0.06,0.07 0.08,-0.02 0.13,-0.02 0.21,-0.02 0.08,-0 0.16,-0 0.24,-0 -0.01,-0.01 -0.16,-0.16 -0.19,-0.19 -0.02,-0.02 -0.05,-0.05 -0.06,-0.07 -0.03,0 -0.07,0.02 -0.09,0.02 -0.03,0.01 -0.06,0.02 -0.08,0.03 -0.03,0.01 -0.05,0.03 -0.08,0.04 -0.01,0.01 -0.07,0.04 -0.07,0.05z"/>
   <path class="fil2" d="M0.93 1.45l-0.45 -0.45c-0,0.07 -0,0.15 0,0.22 0.01,0.14 0.08,0.21 0.22,0.22 0.07,0.01 0.15,0.01 0.22,0z"/>
   <path class="fil2" d="M0.12 0.82c0.02,0.01 0.11,0.1 0.13,0.13 0.02,0.02 0.04,0.04 0.06,0.06 0.02,0.02 0.05,0.05 0.07,0.06 -0,-0.06 -0,-0.14 0,-0.21 0,-0.07 0,-0.13 0.01,-0.2 -0.01,0 -0.01,-0 -0,0l-0.15 -0.15c-0.01,0 -0,0 -0.01,0.01 -0.02,0.02 -0.06,0.11 -0.06,0.13 -0.02,0.04 -0.04,0.12 -0.04,0.16z"/>
   <path class="fil2" d="M0.5 0.68c0.01,0.01 0.07,0.08 0.09,0.09 0.02,0.02 0.08,0.08 0.1,0.09 0.01,-0.04 0.05,-0.1 0.08,-0.12 0.04,-0.03 0.07,-0.05 0.13,-0.07 -0,-0.01 -0.01,-0.02 -0.02,-0.02 -0.03,-0.03 -0.14,-0.14 -0.15,-0.16l-0.01 -0c-0.02,-0 -0.06,0.01 -0.08,0.02 -0.07,0.03 -0.13,0.1 -0.12,0.16z"/>
   <path class="fil2" d="M1.21 0.69c-0,0.01 -0,0 0,0l-0 -0c-0.03,-0.1 0.08,-0.12 0.11,-0.08 0.02,0.02 0.03,0.06 0.01,0.09 -0.02,0.03 -0.05,0.03 -0.09,0.02l-0 -0c0,0 -0,0 0,0l0.2 0.2c0,-0.07 0,-0.14 -0,-0.21 -0.01,-0.09 -0.05,-0.16 -0.13,-0.19 -0.07,-0.03 -0.22,-0.03 -0.3,-0.02l0.2 0.2z"/>
   <path class="fil2" d="M0.24 0.53l0.15 0.15c-0,-0.01 -0,0 0,-0 0.01,-0.06 0.03,-0.12 0.07,-0.16 0.02,-0.02 0.03,-0.04 0.06,-0.06 0.03,-0.02 0.04,-0.03 0.08,-0.04 -0,-0.01 -0.05,-0.06 -0.06,-0.07 -0.02,-0.02 -0.05,-0.05 -0.07,-0.07 -0.03,0.01 -0.11,0.09 -0.13,0.11 -0.03,0.03 -0.09,0.11 -0.1,0.14z"/>
   <path class="fil2" d="M1.51 1.36c0.01,-0.01 0.01,-0 0.02,0.01l0.12 0.12c0.01,-0 0.01,-0.01 0.01,-0.02 0.03,-0.04 0.07,-0.1 0.09,-0.15l-0.18 -0.19c-0.01,-0.01 -0,-0.01 -0.02,-0.01 0,0.08 -0,0.18 -0.03,0.25z"/>
   <path class="fil2" d="M1.51 1.36c-0.01,0.03 -0.03,0.05 -0.04,0.07 -0.01,0.01 -0.02,0.02 -0.03,0.03 -0.01,0.01 -0.02,0.01 -0.03,0.03 -0,0 -0,0 -0,0l-0.01 0.01 0.12 0.11 0.02 -0.01c0.02,-0.02 0.09,-0.09 0.1,-0.12l-0.12 -0.12c-0.01,-0.01 -0.01,-0.01 -0.02,-0.01z"/>
   <path class="fil1" d="M1.21 0.69l0 0c0.01,0.02 0.01,0.02 0.03,0.03l0 0c0.04,0.01 0.07,0 0.09,-0.02 0.02,-0.03 0.01,-0.07 -0.01,-0.09 -0.04,-0.04 -0.14,-0.02 -0.11,0.08z"/>
  </g>
 </g>
</svg>
