<?xml version="1.0" encoding="UTF-8"?>
<!DOCTYPE svg PUBLIC "-//W3C//DTD SVG 1.1//EN" "http://www.w3.org/Graphics/SVG/1.1/DTD/svg11.dtd">
<!-- Creator: CorelDRAW -->
<svg xmlns="http://www.w3.org/2000/svg" xml:space="preserve" width="500px" height="139px" version="1.1" style="shape-rendering:geometricPrecision; text-rendering:geometricPrecision; image-rendering:optimizeQuality; fill-rule:evenodd; clip-rule:evenodd"
viewBox="0 0 250.92 69.89"
 xmlns:xlink="http://www.w3.org/1999/xlink"
 xmlns:xodm="http://www.corel.com/coreldraw/odm/2003">
 <defs>
  <style type="text/css">
   <![CDATA[
    .str0 {stroke:white;stroke-width:0.45;stroke-miterlimit:22.9256;stroke-opacity:0.149020}
    .fil5 {fill:white}
    .fil7 {fill:#315696}
    .fil3 {fill:#315696;fill-rule:nonzero}
    .fil6 {fill:white;fill-opacity:0.149020}
    .fil1 {fill:url(#id0)}
    .fil2 {fill:url(#id1)}
    .fil0 {fill:url(#id2)}
    .fil4 {fill:url(#id3)}
   ]]>
  </style>
  <linearGradient id="id0" gradientUnits="userSpaceOnUse" x1="34.22" y1="47.29" x2="33.72" y2="12.86">
   <stop offset="0" style="stop-opacity:1; stop-color:#008CD4"/>
   <stop offset="0.611765" style="stop-opacity:1; stop-color:#00A7DD"/>
   <stop offset="1" style="stop-opacity:1; stop-color:#00C3E6"/>
  </linearGradient>
  <linearGradient id="id1" gradientUnits="userSpaceOnUse" x1="28.83" y1="43.35" x2="25.17" y2="26.19">
   <stop offset="0" style="stop-opacity:1; stop-color:#00B33A"/>
   <stop offset="0.419608" style="stop-opacity:1; stop-color:#47BC36"/>
   <stop offset="1" style="stop-opacity:1; stop-color:#8EC532"/>
  </linearGradient>
  <linearGradient id="id2" gradientUnits="userSpaceOnUse" x1="45.54" y1="34.93" x2="59.23" y2="1.19">
   <stop offset="0" style="stop-opacity:1; stop-color:#8C1593"/>
   <stop offset="0.431373" style="stop-opacity:1; stop-color:#AB0B93"/>
   <stop offset="1" style="stop-opacity:1; stop-color:#CB0093"/>
  </linearGradient>
  <linearGradient id="id3" gradientUnits="userSpaceOnUse" x1="80.12" y1="65.11" x2="-2.29" y2="42.1">
   <stop offset="0" style="stop-opacity:1; stop-color:#FCCB00"/>
   <stop offset="0.360784" style="stop-opacity:1; stop-color:#EC1C15"/>
   <stop offset="1" style="stop-opacity:1; stop-color:#FABA02"/>
  </linearGradient>
 </defs>
 <g id="Capa_x0020_1">
  <metadata id="CorelCorpID_0Corel-Layer"/>
  <path class="fil0" d="M36.91 27.51c0.2,-7.25 -0.32,-11.57 -2.47,-15.98 4.45,-10.27 13.9,-11.53 19.08,-11.53 3.45,14.77 -10.33,18.69 -16.61,27.51z"/>
  <path class="fil1" d="M33.43 36.88c-2.61,-7.12 -7.7,-9.96 -12.8,-12.09 -0.58,-11.96 0.62,-15 6.66,-23.55 8.62,5.03 11.87,12.2 10.62,24.97 -2.43,3.64 -4.51,7.56 -4.48,10.67z"/>
  <path class="fil2" d="M33.85 47.6c-4.83,-5.43 -10.22,-7.43 -16.13,-6.87 -5.82,-5.4 -6.47,-12.88 -5.73,-20.65 9.24,0.77 19.26,6.05 21.44,16.8 -0.81,3.49 -0.72,7.26 0.42,10.72z"/>
  <path class="fil3" d="M130.84 46.52l4.5 0 0 1.01 -3.36 0 0 2.42 3.24 0 0 1.01 -3.24 0 0 2.48 3.46 0 0 1.01 -4.6 0 0 -7.93zm5.7 0l1.03 0 0 7.93 -1.03 0 0 -7.93zm5.68 10.61l0 -7.9 1.81 0c0.93,0 1.65,0.23 2.16,0.69 0.52,0.47 0.78,1.11 0.78,1.94 0,0.79 -0.24,1.43 -0.73,1.93 -0.49,0.51 -1.1,0.76 -1.85,0.76 -0.34,0 -0.71,-0.08 -1.11,-0.22l0 2.8 -1.06 0zm1.79 -6.93l-0.73 0 0 3.21c0.32,0.16 0.65,0.24 1,0.24 0.48,0 0.87,-0.17 1.18,-0.5 0.31,-0.34 0.46,-0.77 0.46,-1.3 0,-0.34 -0.07,-0.64 -0.22,-0.9 -0.14,-0.26 -0.34,-0.45 -0.59,-0.57 -0.25,-0.12 -0.62,-0.18 -1.1,-0.18zm6.6 -0.98c0.79,0 1.45,0.26 1.98,0.77 0.52,0.51 0.79,1.16 0.79,1.93 0,0.76 -0.27,1.38 -0.8,1.88 -0.54,0.5 -1.21,0.75 -2.02,0.75 -0.78,0 -1.44,-0.25 -1.96,-0.76 -0.53,-0.51 -0.79,-1.14 -0.79,-1.89 0,-0.77 0.26,-1.41 0.79,-1.92 0.54,-0.51 1.2,-0.76 2.01,-0.76zm-0.06 0.93c-0.5,0 -0.9,0.16 -1.22,0.49 -0.32,0.32 -0.48,0.74 -0.48,1.24 0,0.5 0.17,0.91 0.49,1.23 0.33,0.31 0.75,0.47 1.26,0.47 0.51,0 0.92,-0.16 1.24,-0.48 0.33,-0.32 0.49,-0.73 0.49,-1.23 0,-0.49 -0.17,-0.91 -0.51,-1.23 -0.33,-0.33 -0.76,-0.49 -1.27,-0.49zm7.47 -3.63l1.03 0 0 7.93 -2.21 0c-0.77,0 -1.38,-0.24 -1.84,-0.73 -0.46,-0.49 -0.69,-1.14 -0.69,-1.96 0,-0.77 0.24,-1.4 0.72,-1.9 0.48,-0.5 1.1,-0.74 1.85,-0.74 0.35,0 0.73,0.07 1.14,0.21l0 -2.81zm0 7.05l0 -3.31c-0.33,-0.17 -0.65,-0.25 -0.98,-0.25 -0.52,0 -0.93,0.17 -1.23,0.51 -0.3,0.33 -0.46,0.79 -0.46,1.36 0,0.54 0.13,0.96 0.4,1.25 0.16,0.17 0.33,0.29 0.51,0.35 0.17,0.06 0.49,0.09 0.96,0.09l0.8 0zm6.89 -1.65l-3.67 0c0.02,0.5 0.19,0.9 0.5,1.2 0.31,0.3 0.71,0.45 1.19,0.45 0.68,0 1.31,-0.21 1.89,-0.63l0 1.01c-0.32,0.21 -0.64,0.36 -0.95,0.45 -0.31,0.09 -0.68,0.14 -1.1,0.14 -0.57,0 -1.04,-0.12 -1.39,-0.36 -0.36,-0.24 -0.64,-0.56 -0.86,-0.97 -0.21,-0.4 -0.32,-0.87 -0.32,-1.4 0,-0.8 0.23,-1.45 0.68,-1.95 0.45,-0.49 1.03,-0.74 1.75,-0.74 0.7,0 1.25,0.24 1.66,0.72 0.42,0.48 0.62,1.13 0.62,1.95l0 0.13zm-3.65 -0.62l2.63 0c-0.03,-0.41 -0.15,-0.73 -0.37,-0.95 -0.22,-0.23 -0.52,-0.34 -0.89,-0.34 -0.37,0 -0.67,0.11 -0.91,0.34 -0.23,0.22 -0.39,0.54 -0.46,0.95zm5.87 -2.07l0 1.19 0.06 -0.1c0.5,-0.8 1,-1.2 1.5,-1.2 0.39,0 0.8,0.19 1.22,0.59l-0.54 0.91c-0.36,-0.35 -0.7,-0.52 -1,-0.52 -0.34,0 -0.63,0.16 -0.87,0.48 -0.24,0.32 -0.37,0.7 -0.37,1.13l0 2.74 -1.03 0 0 -5.22 1.03 0zm10.23 -2.71l1.03 0 0 7.93 -2.21 0c-0.77,0 -1.39,-0.24 -1.85,-0.73 -0.45,-0.49 -0.69,-1.14 -0.69,-1.96 0,-0.77 0.25,-1.4 0.73,-1.9 0.48,-0.5 1.1,-0.74 1.85,-0.74 0.35,0 0.73,0.07 1.14,0.21l0 -2.81zm0 7.05l0 -3.31c-0.33,-0.17 -0.65,-0.25 -0.98,-0.25 -0.52,0 -0.93,0.17 -1.23,0.51 -0.3,0.33 -0.46,0.79 -0.46,1.36 0,0.54 0.13,0.96 0.4,1.25 0.16,0.17 0.33,0.29 0.51,0.35 0.17,0.06 0.49,0.09 0.95,0.09l0.81 0zm6.89 -1.65l-3.68 0c0.03,0.5 0.2,0.9 0.51,1.2 0.31,0.3 0.7,0.45 1.19,0.45 0.68,0 1.31,-0.21 1.89,-0.63l0 1.01c-0.32,0.21 -0.64,0.36 -0.95,0.45 -0.31,0.09 -0.68,0.14 -1.1,0.14 -0.57,0 -1.04,-0.12 -1.4,-0.36 -0.35,-0.24 -0.64,-0.56 -0.85,-0.97 -0.21,-0.4 -0.32,-0.87 -0.32,-1.4 0,-0.8 0.22,-1.45 0.68,-1.95 0.45,-0.49 1.03,-0.74 1.75,-0.74 0.69,0 1.25,0.24 1.66,0.72 0.42,0.48 0.62,1.13 0.62,1.95l0 0.13zm-3.65 -0.62l2.63 0c-0.03,-0.41 -0.15,-0.73 -0.37,-0.95 -0.22,-0.23 -0.52,-0.34 -0.89,-0.34 -0.37,0 -0.67,0.11 -0.91,0.34 -0.23,0.22 -0.39,0.54 -0.46,0.95zm8.02 -4.78l1.04 0 0 7.93 -1.04 0 0 -7.93zm5.81 4.79l0 2.23c0,0.17 0.06,0.26 0.18,0.26 0.12,0 0.32,-0.09 0.59,-0.26l0 0.62c-0.24,0.14 -0.42,0.24 -0.56,0.3 -0.15,0.05 -0.29,0.08 -0.45,0.08 -0.44,0 -0.69,-0.17 -0.77,-0.51 -0.45,0.34 -0.92,0.51 -1.41,0.51 -0.37,0 -0.67,-0.12 -0.92,-0.37 -0.24,-0.24 -0.36,-0.54 -0.36,-0.91 0,-0.33 0.12,-0.62 0.35,-0.88 0.24,-0.26 0.58,-0.47 1.01,-0.62l1.33 -0.46 0 -0.28c0,-0.63 -0.32,-0.94 -0.95,-0.94 -0.56,0 -1.11,0.29 -1.65,0.87l0 -1.13c0.4,-0.47 0.98,-0.7 1.73,-0.7 0.57,0 1.02,0.14 1.36,0.44 0.11,0.09 0.22,0.22 0.31,0.38 0.09,0.16 0.15,0.31 0.17,0.47 0.03,0.16 0.04,0.46 0.04,0.9zm-1.01 2.11l0 -1.56 -0.7 0.27c-0.35,0.14 -0.6,0.28 -0.75,0.42 -0.14,0.15 -0.22,0.33 -0.22,0.54 0,0.22 0.07,0.39 0.21,0.53 0.14,0.14 0.32,0.21 0.54,0.21 0.33,0 0.64,-0.14 0.92,-0.41zm5.95 -6.9l1.03 0 0 7.93 -1.03 0 0 -7.93zm3.06 0.51c0.17,0 0.31,0.06 0.43,0.18 0.12,0.12 0.18,0.26 0.18,0.43 0,0.17 -0.06,0.31 -0.18,0.43 -0.12,0.12 -0.26,0.18 -0.43,0.18 -0.16,0 -0.3,-0.06 -0.42,-0.18 -0.13,-0.12 -0.19,-0.27 -0.19,-0.43 0,-0.16 0.06,-0.3 0.19,-0.42 0.12,-0.12 0.26,-0.19 0.42,-0.19zm-0.51 2.2l1.03 0 0 5.22 -1.03 0 0 -5.22zm6.8 1.43l0 3.79 -1.03 0 0 -2.91c0,-0.58 -0.08,-0.99 -0.23,-1.22 -0.16,-0.23 -0.43,-0.34 -0.82,-0.34 -0.21,0 -0.41,0.05 -0.59,0.15 -0.18,0.1 -0.39,0.27 -0.62,0.53l0 3.79 -1.03 0 0 -5.22 1.03 0 0 0.69c0.53,-0.54 1.04,-0.8 1.55,-0.8 0.66,0 1.17,0.31 1.53,0.95 0.56,-0.64 1.13,-0.95 1.74,-0.95 0.5,0 0.92,0.18 1.25,0.55 0.33,0.37 0.49,0.94 0.49,1.7l0 3.08 -1.03 0 0 -3.1c0,-0.44 -0.09,-0.77 -0.27,-1 -0.18,-0.23 -0.44,-0.35 -0.77,-0.35 -0.43,0 -0.82,0.22 -1.2,0.66zm4.62 6.47l0 -7.9 1.81 0c0.93,0 1.65,0.23 2.16,0.69 0.52,0.47 0.78,1.11 0.78,1.94 0,0.79 -0.25,1.43 -0.73,1.93 -0.49,0.51 -1.11,0.76 -1.86,0.76 -0.33,0 -0.7,-0.08 -1.1,-0.22l0 2.8 -1.06 0zm1.79 -6.93l-0.73 0 0 3.21c0.31,0.16 0.65,0.24 0.99,0.24 0.49,0 0.88,-0.17 1.19,-0.5 0.31,-0.34 0.46,-0.77 0.46,-1.3 0,-0.34 -0.07,-0.64 -0.22,-0.9 -0.14,-0.26 -0.34,-0.45 -0.59,-0.57 -0.25,-0.12 -0.62,-0.18 -1.1,-0.18zm4.63 -3.17c0.17,0 0.32,0.06 0.44,0.18 0.12,0.12 0.18,0.26 0.18,0.43 0,0.17 -0.06,0.31 -0.18,0.43 -0.12,0.12 -0.27,0.18 -0.44,0.18 -0.16,0 -0.3,-0.06 -0.42,-0.18 -0.12,-0.12 -0.18,-0.27 -0.18,-0.43 0,-0.16 0.06,-0.3 0.18,-0.42 0.12,-0.12 0.26,-0.19 0.42,-0.19zm-0.51 2.2l1.03 0 0 5.22 -1.03 0 0 -5.22zm6.98 2.69l-3.68 0c0.03,0.5 0.2,0.9 0.51,1.2 0.3,0.3 0.7,0.45 1.19,0.45 0.68,0 1.31,-0.21 1.89,-0.63l0 1.01c-0.32,0.21 -0.64,0.36 -0.95,0.45 -0.31,0.09 -0.68,0.14 -1.1,0.14 -0.57,0 -1.04,-0.12 -1.4,-0.36 -0.35,-0.24 -0.64,-0.56 -0.85,-0.97 -0.21,-0.4 -0.32,-0.87 -0.32,-1.4 0,-0.8 0.22,-1.45 0.68,-1.95 0.45,-0.49 1.03,-0.74 1.75,-0.74 0.69,0 1.25,0.24 1.66,0.72 0.41,0.48 0.62,1.13 0.62,1.95l0 0.13zm-3.65 -0.62l2.63 0c-0.03,-0.41 -0.15,-0.73 -0.37,-0.95 -0.22,-0.23 -0.52,-0.34 -0.89,-0.34 -0.37,0 -0.67,0.11 -0.91,0.34 -0.24,0.22 -0.39,0.54 -0.46,0.95zm4.28 -2.07l4.46 0 -2.77 4.26 2.77 0 0 0.96 -4.58 0 2.76 -4.25 -2.64 0 0 -0.97zm8.62 2.08l0 2.23c0,0.17 0.06,0.26 0.18,0.26 0.12,0 0.32,-0.09 0.58,-0.26l0 0.62c-0.23,0.14 -0.41,0.24 -0.56,0.3 -0.14,0.05 -0.28,0.08 -0.44,0.08 -0.44,0 -0.7,-0.17 -0.78,-0.51 -0.44,0.34 -0.91,0.51 -1.4,0.51 -0.37,0 -0.67,-0.12 -0.92,-0.37 -0.24,-0.24 -0.36,-0.54 -0.36,-0.91 0,-0.33 0.12,-0.62 0.35,-0.88 0.24,-0.26 0.58,-0.47 1.01,-0.62l1.32 -0.46 0 -0.28c0,-0.63 -0.31,-0.94 -0.94,-0.94 -0.57,0 -1.11,0.29 -1.65,0.87l0 -1.13c0.4,-0.47 0.98,-0.7 1.73,-0.7 0.57,0 1.02,0.14 1.36,0.44 0.11,0.09 0.22,0.22 0.31,0.38 0.09,0.16 0.14,0.31 0.17,0.47 0.03,0.16 0.04,0.46 0.04,0.9zm-1.02 2.11l0 -1.56 -0.69 0.27c-0.35,0.14 -0.6,0.28 -0.75,0.42 -0.14,0.15 -0.22,0.33 -0.22,0.54 0,0.22 0.07,0.39 0.21,0.53 0.14,0.14 0.32,0.21 0.54,0.21 0.33,0 0.63,-0.14 0.91,-0.41z"/>
  <path class="fil4" d="M81.86 44.95c-9.69,27.23 -37.96,25.45 -48.08,2.62 -7.01,-10.23 -21.16,-11.4 -33.78,-5.24 3.99,7.24 9.25,13.37 16.73,18.19 20.36,13.12 61.52,16.16 65.13,-15.57z"/>
  <path class="fil5" d="M33.41 45.51c-7.45,1.59 -16.66,-4.31 -13.6,-14.49 2.54,-8.48 12.53,-9.33 18.14,-4.86 0.4,-0.53 0.84,-1.04 1.31,-1.51 -0.42,-0.32 -0.87,-0.62 -1.36,-0.89 -6.69,-3.82 -15.66,-2.34 -19.09,4.89 -1.03,2.17 -1.44,4.24 -1.36,6.26 0.19,4.9 2.56,8.36 6.64,10.87 1.98,1.22 4.45,2.05 7.72,1.78 0.73,-0.06 1.45,-0.19 2.13,-0.37 -0.21,-0.56 -0.39,-1.12 -0.53,-1.68z"/>
  <path class="fil5" d="M25.53 53.28c2.32,-1.32 3.7,-3.25 4.02,-6.32 -0.35,0.2 -0.98,0.26 -1.46,0.43 -0.73,1.59 -0.64,2.33 -2.5,3.83 -4.85,3.92 -12.72,-0.13 -11.76,-6.98 0.28,-2 1.32,-3.53 2.53,-4.45 1.25,-0.96 1.87,-1 2.47,-1.17 0.08,-0.31 0.06,-0.98 0.1,-1.55 -5.28,0.36 -9.27,7.59 -5.44,13.12 2.85,4.12 7.72,5.52 12.04,3.09z"/>
  <path class="fil5" d="M35.13 58.42c-0.1,5.59 -7.76,4.7 -7.4,-0.16 0.32,-4.49 7.38,-4.77 7.4,0.16zm-9.02 1.15c0.76,4.69 7.08,5.71 9.61,2.45 1.54,-1.99 1.38,-5.53 -0.43,-7.33 -3.13,-3.11 -10.16,-1.26 -9.18,4.88z"/>
  <path class="fil5" d="M21.62 34.82c1.05,-5.45 4.01,-8.76 9.26,-9.05 -5.11,-2.77 -11.34,4.48 -9.26,9.05z"/>
  <path class="fil6 str0" d="M37.71 27.87c0.44,-2.88 0.72,-5.85 0.31,-9.18 3.24,-8.41 9.45,-9.4 15.89,-9.96 0.13,6.77 -7.16,13.47 -16.2,19.14z"/>
  <path class="fil6" d="M33.09 35.5c-0.36,4.32 -0.22,8.29 0.63,11.98 -1.94,-2.43 -4.06,-4.75 -7.35,-6.42 -5.5,-6.76 -5.56,-12.61 -5.78,-18.92 6,2.41 10.54,6.94 12.5,13.36z"/>
  <path class="fil6" d="M33.61 47.33c1.39,4.78 10.8,13.55 14.73,15.65 -21.74,-5.51 -33.48,-16.47 -32.6,-24.41 6.62,0.33 13.13,2.31 17.87,8.76z"/>
  <path class="fil6" d="M37.93 26l-4.66 9.92c-0.75,-2.49 -2.2,-5.51 -4.03,-7.67 -0.9,-10.26 2.45,-14.05 6.32,-18.94 2.51,4.96 3.14,11.69 2.37,16.69z"/>
  <path class="fil3" d="M83.85 15.43l3.61 0 0 26.67 -3.83 0 0 -20.75 -8.2 10.31 -0.71 0 -8.3 -10.31 0 20.75 -3.83 0 0 -26.67 3.67 0 8.82 10.96 8.77 -10.96zm9.39 0l3.83 0 0 26.67 -3.83 0 0 -26.67zm32.74 20.5l0 4.18c-2.8,1.54 -6.03,2.31 -9.7,2.31 -2.97,0 -5.5,-0.6 -7.58,-1.8 -2.07,-1.2 -3.71,-2.85 -4.92,-4.96 -1.21,-2.1 -1.82,-4.38 -1.82,-6.83 0,-3.89 1.39,-7.16 4.16,-9.81 2.77,-2.66 6.18,-3.98 10.24,-3.98 2.81,0 5.92,0.73 9.34,2.19l0 4.11c-3.12,-1.78 -6.17,-2.66 -9.15,-2.66 -3.06,0 -5.59,0.96 -7.61,2.9 -2.02,1.93 -3.03,4.35 -3.03,7.25 0,2.94 0.99,5.35 2.98,7.24 1.98,1.88 4.53,2.83 7.62,2.83 3.23,0 6.39,-0.99 9.47,-2.97zm23.5 -20.5l3.83 0 0 26.67 -3.83 0 0 -11.61 -14.98 0 0 11.61 -3.83 0 0 -26.67 3.83 0 0 11.54 14.98 0 0 -11.54zm9.74 0l3.83 0 0 26.67 -3.83 0 0 -26.67zm9.74 0l14.23 0 0 3.4 -10.4 0 0 7.44 10.4 0 0 3.4 -10.4 0 0 12.43 -3.83 0 0 -26.67zm24.91 -0.15l2.69 0 11.95 26.82 -3.91 0 -3.55 -7.89 -11.37 0 -3.33 7.89 -3.93 0 11.45 -26.82zm5.66 15.52l-4.34 -9.66 -4.03 9.66 8.37 0zm33.1 -15.37l3.61 0 0 26.67 -3.83 0 0 -20.75 -8.2 10.31 -0.71 0 -8.3 -10.31 0 20.75 -3.83 0 0 -26.67 3.67 0 8.82 10.96 8.77 -10.96z"/>
  <path class="fil5" d="M15.79 45.6c0.33,-2.84 1.64,-4.75 4.26,-5.21 -2.96,-1.22 -5.76,2.89 -4.26,5.21z"/>
  <path class="fil5" d="M34.32 59.4c-0.22,-1.85 -1.06,-3.09 -2.77,-3.39 1.93,-0.79 3.75,1.88 2.77,3.39z"/>
  <path class="fil7" d="M241.67 20.09c0.04,-0.29 0.13,-0.59 0.23,-0.84 0.19,-0.49 0.32,-0.66 0.57,-1.02l0.12 -0.15c0.04,-0.06 0.08,-0.1 0.12,-0.14 0.12,-0.13 0.34,-0.35 0.48,-0.46 0.14,-0.1 0.24,-0.19 0.39,-0.27 0.45,-0.28 0.98,-0.52 1.52,-0.6 0.17,-0.03 0.31,-0.04 0.48,-0.06 0.6,-0.06 1.36,0.1 1.83,0.29 0.42,0.17 0.52,0.25 0.87,0.47 1.35,0.85 1.98,2.69 1.73,4.23 -0.06,0.35 -0.24,0.89 -0.41,1.19 -0.24,0.41 -0.34,0.58 -0.65,0.93 -0.09,0.09 -0.17,0.17 -0.28,0.26 -0.16,0.15 -0.22,0.19 -0.37,0.3 -0.14,0.11 -0.42,0.27 -0.57,0.35 -0.24,0.11 -0.49,0.21 -0.77,0.29 -0.15,0.04 -0.27,0.07 -0.44,0.09 -0.13,0.02 -0.34,0.06 -0.47,0.06 -0.18,-0.01 -0.36,0 -0.54,-0.01 -0.38,-0.03 -0.93,-0.16 -1.27,-0.31 -0.51,-0.23 -0.46,-0.22 -0.86,-0.47 -0.1,-0.07 -0.23,-0.19 -0.3,-0.24 -0.03,-0.02 -0.04,-0.02 -0.07,-0.05l-0.45 -0.49c-0.04,-0.04 -0.08,-0.1 -0.11,-0.15l-0.22 -0.31c-0.6,-0.94 -0.7,-1.83 -0.56,-2.89zm-0.88 1.06c0.06,0.74 0.26,1.4 0.56,1.97 0.59,1.1 1.49,1.9 2.66,2.38 0.62,0.26 1.39,0.38 2.17,0.34 1.12,-0.07 2.12,-0.51 2.95,-1.19 0.3,-0.25 0.68,-0.68 0.9,-1.01 0.63,-0.93 0.95,-2 0.88,-3.21 -0.05,-0.76 -0.27,-1.42 -0.56,-1.99 -0.04,-0.07 -0.07,-0.13 -0.11,-0.2 -0.19,-0.32 -0.43,-0.64 -0.68,-0.91 -0.51,-0.56 -1.18,-1.01 -1.89,-1.28 -1.35,-0.52 -2.86,-0.45 -4.16,0.23 -0.29,0.14 -0.72,0.42 -0.95,0.64 -0.06,0.05 -0.11,0.09 -0.17,0.14 -0.17,0.16 -0.21,0.23 -0.35,0.37l-0.32 0.4c-0.66,0.88 -1.03,2.2 -0.93,3.32z"/>
  <path class="fil7" d="M244.79 20.31l0.01 -1.43c0.45,0 0.89,-0.04 1.34,-0.02 0.86,0.04 0.8,1.14 0.29,1.37 -0.08,0.04 -0.17,0.06 -0.27,0.07 -0.19,0.03 -1.09,0.01 -1.37,0.01zm-0.81 -2.26c-0.02,0.44 -0.01,0.92 -0.01,1.36l0.01 3.37c0,0.14 -0.03,0.59 0,0.68 0.07,0.01 0.12,0.01 0.19,0.01 0.05,0 0.59,0.02 0.61,-0.01 0.03,-0.03 0.01,-1.12 0.01,-1.14 0,-0.36 -0.02,-0.8 0,-1.15 0.11,-0.02 0.44,-0.01 0.57,-0.01 0.36,0.01 0.5,0.14 0.7,0.45 0.26,0.4 0.58,1.05 0.82,1.49 0.04,0.08 0.16,0.33 0.2,0.37l0.98 0c-0.01,-0.03 -1,-1.94 -1.02,-1.96l-0.23 -0.31c-0.02,-0.03 -0.03,-0.04 -0.06,-0.06l-0.1 -0.1c0.18,-0.1 0.34,-0.1 0.6,-0.36 0.15,-0.15 0.28,-0.36 0.33,-0.61 0.11,-0.56 0.06,-1.12 -0.28,-1.57 -0.32,-0.41 -0.74,-0.49 -1.43,-0.48 -0.31,0.01 -0.63,0.01 -0.94,0.02 -0.16,0 -0.31,0.01 -0.46,0.01 -0.16,0 -0.35,-0.01 -0.49,0z"/>
 </g>
</svg>
