<?xml version="1.0" encoding="UTF-8"?>
<!DOCTYPE svg PUBLIC "-//W3C//DTD SVG 1.1//EN" "http://www.w3.org/Graphics/SVG/1.1/DTD/svg11.dtd">
<!-- Creator: CorelDRAW -->
<svg xmlns="http://www.w3.org/2000/svg" xml:space="preserve" width="25.1377mm" height="12.0595mm" version="1.1" style="shape-rendering:geometricPrecision; text-rendering:geometricPrecision; image-rendering:optimizeQuality; fill-rule:evenodd; clip-rule:evenodd"
viewBox="0 0 54.1 25.95"
 xmlns:xlink="http://www.w3.org/1999/xlink"
 xmlns:xodm="http://www.corel.com/coreldraw/odm/2003">
 <defs>
  <style type="text/css">
   <![CDATA[
    .str0 {stroke:white;stroke-width:0.16;stroke-miterlimit:22.9256;stroke-opacity:0.149020}
    .fil5 {fill:white}
    .fil3 {fill:#315696;fill-rule:nonzero}
    .fil6 {fill:white;fill-opacity:0.149020}
    .fil2 {fill:url(#id0)}
    .fil0 {fill:url(#id1)}
    .fil4 {fill:url(#id2)}
    .fil1 {fill:url(#id3)}
   ]]>
  </style>
  <linearGradient id="id0" gradientUnits="userSpaceOnUse" x1="10.71" y1="16.1" x2="9.35" y2="9.73">
   <stop offset="0" style="stop-opacity:1; stop-color:#00B33A"/>
   <stop offset="0.419608" style="stop-opacity:1; stop-color:#47BC36"/>
   <stop offset="1" style="stop-opacity:1; stop-color:#8EC532"/>
  </linearGradient>
  <linearGradient id="id1" gradientUnits="userSpaceOnUse" x1="16.91" y1="12.97" x2="21.99" y2="0.44">
   <stop offset="0" style="stop-opacity:1; stop-color:#8C1593"/>
   <stop offset="0.431373" style="stop-opacity:1; stop-color:#AB0B93"/>
   <stop offset="1" style="stop-opacity:1; stop-color:#CB0093"/>
  </linearGradient>
  <linearGradient id="id2" gradientUnits="userSpaceOnUse" x1="29.75" y1="24.18" x2="-0.85" y2="15.63">
   <stop offset="0" style="stop-opacity:1; stop-color:#FCCB00"/>
   <stop offset="0.360784" style="stop-opacity:1; stop-color:#EC1C15"/>
   <stop offset="1" style="stop-opacity:1; stop-color:#FABA02"/>
  </linearGradient>
  <linearGradient id="id3" gradientUnits="userSpaceOnUse" x1="12.71" y1="17.56" x2="12.52" y2="4.78">
   <stop offset="0" style="stop-opacity:1; stop-color:#008CD4"/>
   <stop offset="0.611765" style="stop-opacity:1; stop-color:#00A7DD"/>
   <stop offset="1" style="stop-opacity:1; stop-color:#00C3E6"/>
  </linearGradient>
 </defs>
 <g id="Capa_x0020_1">
  <metadata id="CorelCorpID_0Corel-Layer"/>
  <g id="_105553772829344">
   <path class="fil0" d="M13.71 10.21c0.08,-2.69 -0.12,-4.29 -0.92,-5.93 1.65,-3.81 5.16,-4.28 7.09,-4.28 1.28,5.49 -3.84,6.94 -6.17,10.21z"/>
   <path class="fil1" d="M12.41 13.69c-0.97,-2.64 -2.86,-3.7 -4.75,-4.49 -0.21,-4.44 0.23,-5.57 2.47,-8.75 3.2,1.87 4.41,4.53 3.94,9.27 -0.9,1.35 -1.68,2.81 -1.67,3.96z"/>
   <path class="fil2" d="M12.57 17.68c-1.79,-2.02 -3.8,-2.76 -5.99,-2.55 -2.16,-2 -2.4,-4.78 -2.13,-7.67 3.43,0.29 7.15,2.24 7.96,6.24 -0.3,1.3 -0.26,2.7 0.16,3.98z"/>
   <path class="fil3" d="M30.97 17.29l0.99 0 0 0.22 -0.74 0 0 0.53 0.71 0 0 0.22 -0.71 0 0 0.54 0.76 0 0 0.22 -1.01 0 0 -1.74zm1.25 0l0.23 0 0 1.74 -0.23 0 0 -1.74zm1.25 2.33l0 -1.73 0.4 0c0.2,0 0.36,0.05 0.47,0.15 0.11,0.1 0.17,0.24 0.17,0.43 0,0.17 -0.05,0.31 -0.16,0.42 -0.11,0.11 -0.24,0.17 -0.41,0.17 -0.07,0 -0.15,-0.02 -0.24,-0.05l0 0.62 -0.23 0zm0.39 -1.52l-0.16 0 0 0.71c0.07,0.04 0.14,0.05 0.22,0.05 0.11,0 0.19,-0.04 0.26,-0.11 0.07,-0.07 0.1,-0.17 0.1,-0.28 0,-0.07 -0.02,-0.14 -0.05,-0.2 -0.03,-0.06 -0.08,-0.1 -0.13,-0.13 -0.06,-0.03 -0.14,-0.04 -0.24,-0.04zm1.45 -0.21c0.17,0 0.32,0.06 0.44,0.17 0.12,0.11 0.17,0.25 0.17,0.42 0,0.17 -0.06,0.3 -0.18,0.41 -0.12,0.11 -0.26,0.16 -0.44,0.16 -0.17,0 -0.32,-0.06 -0.43,-0.17 -0.12,-0.11 -0.17,-0.25 -0.17,-0.42 0,-0.17 0.06,-0.31 0.18,-0.42 0.12,-0.11 0.26,-0.17 0.44,-0.17zm-0.01 0.2c-0.11,0 -0.2,0.04 -0.27,0.11 -0.07,0.07 -0.1,0.16 -0.1,0.27 0,0.11 0.04,0.2 0.11,0.27 0.07,0.07 0.16,0.1 0.28,0.1 0.11,0 0.2,-0.04 0.27,-0.11 0.07,-0.07 0.11,-0.16 0.11,-0.27 0,-0.11 -0.04,-0.2 -0.11,-0.27 -0.07,-0.07 -0.17,-0.11 -0.28,-0.11zm1.64 -0.8l0.23 0 0 1.74 -0.48 0c-0.17,0 -0.3,-0.05 -0.41,-0.16 -0.1,-0.11 -0.15,-0.25 -0.15,-0.43 0,-0.17 0.05,-0.31 0.16,-0.42 0.11,-0.11 0.24,-0.16 0.41,-0.16 0.08,0 0.16,0.02 0.25,0.05l0 -0.62zm0 1.55l0 -0.73c-0.07,-0.04 -0.14,-0.05 -0.21,-0.05 -0.11,0 -0.2,0.04 -0.27,0.11 -0.07,0.07 -0.1,0.17 -0.1,0.3 0,0.12 0.03,0.21 0.09,0.27 0.03,0.04 0.07,0.06 0.11,0.08 0.04,0.01 0.11,0.02 0.21,0.02l0.18 0zm1.51 -0.36l-0.81 0c0.01,0.11 0.04,0.2 0.11,0.26 0.07,0.07 0.16,0.1 0.26,0.1 0.15,0 0.29,-0.05 0.41,-0.14l0 0.22c-0.07,0.05 -0.14,0.08 -0.21,0.1 -0.07,0.02 -0.15,0.03 -0.24,0.03 -0.13,0 -0.23,-0.03 -0.31,-0.08 -0.08,-0.05 -0.14,-0.12 -0.19,-0.21 -0.05,-0.09 -0.07,-0.19 -0.07,-0.31 0,-0.17 0.05,-0.32 0.15,-0.43 0.1,-0.11 0.23,-0.16 0.39,-0.16 0.15,0 0.27,0.05 0.36,0.16 0.09,0.11 0.14,0.25 0.14,0.43l0 0.03zm-0.8 -0.14l0.58 0c-0.01,-0.09 -0.03,-0.16 -0.08,-0.21 -0.05,-0.05 -0.11,-0.07 -0.19,-0.07 -0.08,0 -0.15,0.02 -0.2,0.07 -0.05,0.05 -0.09,0.12 -0.1,0.21zm1.29 -0.45l0 0.26 0.01 -0.02c0.11,-0.18 0.22,-0.27 0.33,-0.27 0.09,0 0.17,0.04 0.27,0.13l-0.12 0.2c-0.08,-0.07 -0.15,-0.11 -0.22,-0.11 -0.07,0 -0.14,0.03 -0.19,0.11 -0.05,0.07 -0.08,0.15 -0.08,0.25l0 0.6 -0.23 0 0 -1.15 0.23 0zm2.24 -0.59l0.23 0 0 1.74 -0.48 0c-0.17,0 -0.3,-0.05 -0.41,-0.16 -0.1,-0.11 -0.15,-0.25 -0.15,-0.43 0,-0.17 0.05,-0.31 0.16,-0.42 0.11,-0.11 0.24,-0.16 0.41,-0.16 0.08,0 0.16,0.02 0.25,0.05l0 -0.62zm0 1.55l0 -0.73c-0.07,-0.04 -0.14,-0.05 -0.21,-0.05 -0.11,0 -0.2,0.04 -0.27,0.11 -0.07,0.07 -0.1,0.17 -0.1,0.3 0,0.12 0.03,0.21 0.09,0.27 0.03,0.04 0.07,0.06 0.11,0.08 0.04,0.01 0.11,0.02 0.21,0.02l0.18 0zm1.51 -0.36l-0.81 0c0.01,0.11 0.04,0.2 0.11,0.26 0.07,0.07 0.16,0.1 0.26,0.1 0.15,0 0.29,-0.05 0.41,-0.14l0 0.22c-0.07,0.05 -0.14,0.08 -0.21,0.1 -0.07,0.02 -0.15,0.03 -0.24,0.03 -0.13,0 -0.23,-0.03 -0.31,-0.08 -0.08,-0.05 -0.14,-0.12 -0.19,-0.21 -0.05,-0.09 -0.07,-0.19 -0.07,-0.31 0,-0.17 0.05,-0.32 0.15,-0.43 0.1,-0.11 0.23,-0.16 0.39,-0.16 0.15,0 0.27,0.05 0.36,0.16 0.09,0.11 0.14,0.25 0.14,0.43l0 0.03zm-0.8 -0.14l0.58 0c-0.01,-0.09 -0.03,-0.16 -0.08,-0.21 -0.05,-0.05 -0.11,-0.07 -0.19,-0.07 -0.08,0 -0.15,0.02 -0.2,0.07 -0.05,0.05 -0.09,0.12 -0.1,0.21zm1.76 -1.05l0.23 0 0 1.74 -0.23 0 0 -1.74zm1.27 1.05l0 0.49c0,0.04 0.01,0.06 0.04,0.06 0.03,0 0.07,-0.02 0.13,-0.06l0 0.14c-0.05,0.03 -0.09,0.05 -0.12,0.07 -0.03,0.01 -0.06,0.02 -0.1,0.02 -0.1,0 -0.15,-0.04 -0.17,-0.11 -0.1,0.07 -0.2,0.11 -0.31,0.11 -0.08,0 -0.15,-0.03 -0.2,-0.08 -0.05,-0.05 -0.08,-0.12 -0.08,-0.2 0,-0.07 0.03,-0.14 0.08,-0.19 0.05,-0.06 0.13,-0.1 0.22,-0.14l0.29 -0.1 0 -0.06c0,-0.14 -0.07,-0.21 -0.21,-0.21 -0.12,0 -0.24,0.06 -0.36,0.19l0 -0.25c0.09,-0.1 0.21,-0.16 0.38,-0.16 0.12,0 0.22,0.03 0.3,0.1 0.02,0.02 0.05,0.05 0.07,0.08 0.02,0.03 0.03,0.07 0.04,0.1 0.01,0.03 0.01,0.1 0.01,0.2zm-0.22 0.46l0 -0.34 -0.15 0.06c-0.08,0.03 -0.13,0.06 -0.16,0.09 -0.03,0.03 -0.05,0.07 -0.05,0.12 0,0.05 0.02,0.09 0.05,0.12 0.03,0.03 0.07,0.05 0.12,0.05 0.07,0 0.14,-0.03 0.2,-0.09zm1.31 -1.51l0.23 0 0 1.74 -0.23 0 0 -1.74zm0.67 0.11c0.04,0 0.07,0.01 0.1,0.04 0.03,0.03 0.04,0.06 0.04,0.09 0,0.04 -0.01,0.07 -0.04,0.09 -0.03,0.03 -0.06,0.04 -0.1,0.04 -0.03,0 -0.07,-0.01 -0.09,-0.04 -0.03,-0.03 -0.04,-0.06 -0.04,-0.09 0,-0.03 0.01,-0.07 0.04,-0.09 0.03,-0.03 0.06,-0.04 0.09,-0.04zm-0.11 0.48l0.23 0 0 1.15 -0.23 0 0 -1.15zm1.49 0.31l0 0.83 -0.23 0 0 -0.64c0,-0.13 -0.02,-0.22 -0.05,-0.27 -0.03,-0.05 -0.09,-0.08 -0.18,-0.08 -0.05,0 -0.09,0.01 -0.13,0.03 -0.04,0.02 -0.08,0.06 -0.14,0.12l0 0.83 -0.23 0 0 -1.15 0.23 0 0 0.15c0.12,-0.12 0.23,-0.18 0.34,-0.18 0.15,0 0.26,0.07 0.34,0.21 0.12,-0.14 0.25,-0.21 0.38,-0.21 0.11,0 0.2,0.04 0.27,0.12 0.07,0.08 0.11,0.21 0.11,0.37l0 0.68 -0.23 0 0 -0.68c0,-0.1 -0.02,-0.17 -0.06,-0.22 -0.04,-0.05 -0.1,-0.08 -0.17,-0.08 -0.09,0 -0.18,0.05 -0.26,0.15zm1.01 1.42l0 -1.73 0.4 0c0.2,0 0.36,0.05 0.47,0.15 0.11,0.1 0.17,0.24 0.17,0.43 0,0.17 -0.05,0.31 -0.16,0.42 -0.11,0.11 -0.24,0.17 -0.41,0.17 -0.07,0 -0.15,-0.02 -0.24,-0.05l0 0.62 -0.23 0zm0.39 -1.52l-0.16 0 0 0.71c0.07,0.04 0.14,0.05 0.22,0.05 0.11,0 0.19,-0.04 0.26,-0.11 0.07,-0.07 0.1,-0.17 0.1,-0.28 0,-0.07 -0.02,-0.14 -0.05,-0.2 -0.03,-0.06 -0.08,-0.1 -0.13,-0.13 -0.06,-0.03 -0.14,-0.04 -0.24,-0.04zm1.02 -0.69c0.04,0 0.07,0.01 0.1,0.04 0.03,0.03 0.04,0.06 0.04,0.09 0,0.04 -0.01,0.07 -0.04,0.09 -0.03,0.03 -0.06,0.04 -0.1,0.04 -0.03,0 -0.07,-0.01 -0.09,-0.04 -0.03,-0.03 -0.04,-0.06 -0.04,-0.09 0,-0.03 0.01,-0.07 0.04,-0.09 0.03,-0.03 0.06,-0.04 0.09,-0.04zm-0.11 0.48l0.23 0 0 1.15 -0.23 0 0 -1.15zm1.53 0.59l-0.81 0c0.01,0.11 0.04,0.2 0.11,0.26 0.07,0.07 0.16,0.1 0.26,0.1 0.15,0 0.29,-0.05 0.41,-0.14l0 0.22c-0.07,0.05 -0.14,0.08 -0.21,0.1 -0.07,0.02 -0.15,0.03 -0.24,0.03 -0.13,0 -0.23,-0.03 -0.31,-0.08 -0.08,-0.05 -0.14,-0.12 -0.19,-0.21 -0.05,-0.09 -0.07,-0.19 -0.07,-0.31 0,-0.17 0.05,-0.32 0.15,-0.43 0.1,-0.11 0.23,-0.16 0.39,-0.16 0.15,0 0.27,0.05 0.36,0.16 0.09,0.11 0.14,0.25 0.14,0.43l0 0.03zm-0.8 -0.14l0.58 0c-0.01,-0.09 -0.03,-0.16 -0.08,-0.21 -0.05,-0.05 -0.11,-0.07 -0.19,-0.07 -0.08,0 -0.15,0.02 -0.2,0.07 -0.05,0.05 -0.09,0.12 -0.1,0.21zm0.94 -0.45l0.98 0 -0.61 0.93 0.61 0 0 0.21 -1.01 0 0.6 -0.93 -0.58 0 0 -0.21zm1.89 0.46l0 0.49c0,0.04 0.01,0.06 0.04,0.06 0.03,0 0.07,-0.02 0.13,-0.06l0 0.14c-0.05,0.03 -0.09,0.05 -0.12,0.07 -0.03,0.01 -0.06,0.02 -0.1,0.02 -0.1,0 -0.15,-0.04 -0.17,-0.11 -0.1,0.07 -0.2,0.11 -0.31,0.11 -0.08,0 -0.15,-0.03 -0.2,-0.08 -0.05,-0.05 -0.08,-0.12 -0.08,-0.2 0,-0.07 0.03,-0.14 0.08,-0.19 0.05,-0.06 0.13,-0.1 0.22,-0.14l0.29 -0.1 0 -0.06c0,-0.14 -0.07,-0.21 -0.21,-0.21 -0.12,0 -0.24,0.06 -0.36,0.19l0 -0.25c0.09,-0.1 0.21,-0.16 0.38,-0.16 0.12,0 0.22,0.03 0.3,0.1 0.02,0.02 0.05,0.05 0.07,0.08 0.02,0.03 0.03,0.07 0.04,0.1 0.01,0.03 0.01,0.1 0.01,0.2zm-0.22 0.46l0 -0.34 -0.15 0.06c-0.08,0.03 -0.13,0.06 -0.16,0.09 -0.03,0.03 -0.05,0.07 -0.05,0.12 0,0.05 0.02,0.09 0.05,0.12 0.03,0.03 0.07,0.05 0.12,0.05 0.07,0 0.14,-0.03 0.2,-0.09z"/>
   <path class="fil4" d="M30.4 16.69c-3.6,10.11 -14.1,9.45 -17.86,0.97 -2.6,-3.8 -7.85,-4.23 -12.54,-1.95 1.48,2.69 3.44,4.97 6.21,6.75 7.56,4.87 22.84,6 24.19,-5.78z"/>
   <path class="fil5" d="M12.41 16.9c-2.77,0.59 -6.19,-1.6 -5.05,-5.38 0.95,-3.15 4.65,-3.47 6.74,-1.8 0.15,-0.2 0.31,-0.39 0.49,-0.56 -0.16,-0.12 -0.32,-0.23 -0.51,-0.33 -2.49,-1.42 -5.82,-0.87 -7.09,1.82 -0.38,0.8 -0.53,1.57 -0.5,2.32 0.07,1.82 0.95,3.1 2.47,4.04 0.74,0.45 1.66,0.76 2.87,0.66 0.27,-0.02 0.54,-0.07 0.79,-0.14 -0.08,-0.21 -0.14,-0.41 -0.2,-0.62z"/>
   <path class="fil5" d="M9.48 19.78c0.86,-0.49 1.37,-1.2 1.49,-2.34 -0.13,0.07 -0.36,0.09 -0.54,0.16 -0.27,0.59 -0.24,0.87 -0.93,1.42 -1.8,1.46 -4.73,-0.05 -4.37,-2.59 0.1,-0.75 0.49,-1.31 0.94,-1.65 0.47,-0.36 0.7,-0.37 0.92,-0.43 0.03,-0.12 0.02,-0.36 0.04,-0.57 -1.96,0.13 -3.44,2.82 -2.02,4.87 1.06,1.53 2.87,2.05 4.47,1.15z"/>
   <path class="fil5" d="M13.04 21.69c-0.04,2.07 -2.88,1.74 -2.75,-0.06 0.12,-1.67 2.74,-1.77 2.75,0.06zm-3.35 0.43c0.28,1.74 2.63,2.12 3.57,0.91 0.57,-0.74 0.51,-2.06 -0.16,-2.72 -1.16,-1.15 -3.77,-0.47 -3.41,1.81z"/>
   <path class="fil5" d="M8.03 12.93c0.39,-2.02 1.49,-3.25 3.44,-3.36 -1.9,-1.03 -4.21,1.66 -3.44,3.36z"/>
   <path class="fil6 str0" d="M14 10.35c0.16,-1.07 0.27,-2.17 0.12,-3.41 1.2,-3.12 3.51,-3.49 5.9,-3.7 0.05,2.51 -2.66,5 -6.02,7.1z"/>
   <path class="fil6" d="M12.29 13.18c-0.13,1.61 -0.08,3.08 0.23,4.45 -0.72,-0.9 -1.51,-1.77 -2.73,-2.39 -2.04,-2.51 -2.06,-4.68 -2.15,-7.02 2.23,0.89 3.91,2.58 4.64,4.96z"/>
   <path class="fil6" d="M12.48 17.57c0.52,1.78 4.01,5.03 5.47,5.81 -8.07,-2.05 -12.43,-6.11 -12.1,-9.06 2.46,0.12 4.88,0.86 6.63,3.25z"/>
   <path class="fil6" d="M14.08 9.65l-1.73 3.68c-0.28,-0.92 -0.82,-2.04 -1.49,-2.85 -0.34,-3.81 0.91,-5.22 2.35,-7.03 0.93,1.84 1.17,4.34 0.88,6.2z"/>
   <path class="fil3" d="M20.65 10.47l0.79 0 0 5.85 -0.84 0 0 -4.55 -1.8 2.26 -0.16 0 -1.82 -2.26 0 4.55 -0.84 0 0 -5.85 0.81 0 1.94 2.4 1.92 -2.4zm2.06 0l0.84 0 0 5.85 -0.84 0 0 -5.85zm7.18 4.5l0 0.92c-0.61,0.34 -1.32,0.51 -2.13,0.51 -0.65,0 -1.21,-0.13 -1.66,-0.39 -0.45,-0.26 -0.82,-0.62 -1.08,-1.09 -0.26,-0.46 -0.4,-0.96 -0.4,-1.5 0,-0.85 0.3,-1.57 0.91,-2.15 0.61,-0.58 1.36,-0.87 2.25,-0.87 0.62,0 1.3,0.16 2.05,0.48l0 0.9c-0.69,-0.39 -1.35,-0.58 -2.01,-0.58 -0.67,0 -1.23,0.21 -1.67,0.64 -0.44,0.42 -0.66,0.95 -0.66,1.59 0,0.64 0.22,1.17 0.65,1.59 0.43,0.41 0.99,0.62 1.67,0.62 0.71,0 1.4,-0.22 2.08,-0.65zm5.16 -4.5l0.84 0 0 5.85 -0.84 0 0 -2.55 -3.29 0 0 2.55 -0.84 0 0 -5.85 0.84 0 0 2.53 3.29 0 0 -2.53zm2.14 0l0.84 0 0 5.85 -0.84 0 0 -5.85zm2.14 0l3.12 0 0 0.75 -2.28 0 0 1.63 2.28 0 0 0.75 -2.28 0 0 2.73 -0.84 0 0 -5.85zm5.47 -0.03l0.59 0 2.62 5.89 -0.86 0 -0.78 -1.73 -2.5 0 -0.73 1.73 -0.86 0 2.51 -5.89zm1.24 3.41l-0.95 -2.12 -0.89 2.12 1.84 0zm7.26 -3.37l0.79 0 0 5.85 -0.84 0 0 -4.55 -1.8 2.26 -0.16 0 -1.82 -2.26 0 4.55 -0.84 0 0 -5.85 0.81 0 1.94 2.4 1.92 -2.4z"/>
   <path class="fil5" d="M5.86 16.93c0.12,-1.06 0.61,-1.76 1.58,-1.94 -1.1,-0.45 -2.14,1.07 -1.58,1.94z"/>
   <path class="fil5" d="M12.75 22.06c-0.08,-0.69 -0.4,-1.15 -1.03,-1.26 0.72,-0.29 1.39,0.7 1.03,1.26z"/>
  </g>
 </g>
</svg>
